<svg xmlns="http://www.w3.org/2000/svg" viewBox="0 0 16 16" shape-rendering="crispEdges">
  <rect width="16" height="16" fill="#f7f2e8"/>
  <rect x="1" y="4" width="2" height="1" fill="#2b6f63"/>
  <rect x="3" y="3" width="3" height="1" fill="#2b6f63"/>
  <rect x="6" y="4" width="2" height="1" fill="#2b6f63"/>
  <rect x="8" y="3" width="3" height="1" fill="#2b6f63"/>
  <rect x="11" y="4" width="4" height="1" fill="#2b6f63"/>
  <rect x="2" y="7" width="2" height="5" fill="#1f2933"/>
  <rect x="4" y="8" width="2" height="4" fill="#3a3f3d"/>
  <rect x="6" y="6" width="1" height="6" fill="#1f2933"/>
  <rect x="8" y="7" width="2" height="5" fill="#2a2f2e"/>
  <rect x="11" y="4" width="2" height="8" fill="#1f2933"/>
  <rect x="13" y="9" width="1" height="3" fill="#3a3f3d"/>
  <rect x="3" y="8" width="1" height="1" fill="#f0c15a"/>
  <rect x="5" y="9" width="1" height="1" fill="#f0c15a"/>
  <rect x="8" y="8" width="1" height="1" fill="#f0c15a"/>
  <rect x="12" y="6" width="1" height="1" fill="#f0c15a"/>
  <rect x="0" y="12" width="16" height="4" fill="#2b8aa0"/>
  <rect x="2" y="13" width="3" height="1" fill="#f7f2e8"/>
  <rect x="7" y="14" width="4" height="1" fill="#f7f2e8"/>
  <rect x="12" y="13" width="2" height="1" fill="#f7f2e8"/>
  <rect x="2" y="2" width="1" height="1" fill="#d94135"/>
  <rect x="1" y="3" width="1" height="1" fill="#d94135"/>
  <rect x="2" y="3" width="1" height="1" fill="#f7f2e8"/>
  <rect x="3" y="3" width="1" height="1" fill="#d94135"/>
  <rect x="2" y="4" width="1" height="1" fill="#d94135"/>
</svg>
